<?xml version="1.0" encoding="UTF-8" standalone="no"?>
<!-- Created with Inkscape (http://www.inkscape.org/) -->

<svg
   xmlns:dc="http://purl.org/dc/elements/1.1/"
   xmlns:cc="http://creativecommons.org/ns#"
   xmlns:rdf="http://www.w3.org/1999/02/22-rdf-syntax-ns#"
   xmlns:svg="http://www.w3.org/2000/svg"
   xmlns="http://www.w3.org/2000/svg"
   version="1.1"
   width="197"
   height="195"
   viewBox="0 0 2188.7503 2166.8435"
   id="svg2"
   xml:space="preserve"
   style="fill-rule:evenodd"><metadata
   id="metadata700"><rdf:RDF><cc:Work
       rdf:about=""><dc:format>image/svg+xml</dc:format><dc:type
         rdf:resource="http://purl.org/dc/dcmitype/StillImage" /><dc:title></dc:title></cc:Work></rdf:RDF></metadata>
 <defs
   id="defs4">
  <style
   type="text/css"
   id="style6" />
 
  
  
  
  
  
  
  
  
  
  
  
  
  
  
  
  
  
  
  
  
  
  
  
  
  
  
  
  
  
  
  
  
  
  
  
  
  
  
  
  
  
  
  
  
  
  
  
  
  
  
  
  
  
  
  
  
  
  
  
  
  
  
  
  
  
  
  
  
  
  
  
  
  
  
  
  
  
  
  
  
  
  
  
  
  
  
  
  
  
  
  
  
  
  
  
  
  
  
  
  
  
  
  
  
  
  
  
  
  
  
  
  
  
  
  
  
  
  
  
  
  
  
  
  
  
  
  
  
  
  
  
  
  
  
  
  
  
  
  
  
  
  
  
  
  
  
  
  
  
  
  
  
  
  
  
  
  
  
  
  
  
  
  
  
  
  
  
  
  
  
  
  
  
  
  
  
  
  
  
  
  
  
  
  
  
  
  
  
  
  
  
  
  
  
  
  
  
  
  
  
  
  
  
  
  
  
  
  
  
  
  
  
  
  
  
  
  
  
  
  
  
  
  
  
  
  
  
  
  
  
  
  
  
  
  
  
  
  
  
  
  
  
  
  
  
  
  
  
  
  
  
  
  
  
  
  
  
  
  
  
  
  
  
  
  
  
  
  
  
  
  
  
  
  
  
  
  
  
  
  
  
  
  
  
  
  
  
  
  
  
  
  
  
  
  
  
  
  
  
  
  
  
  
  
  
  
  
  
  
  
  
  
  
  
  
  
  
  
  
  
  
  
  
  
  
  
  
  
  
  
  
  
  
  
  
  
  
  
  
  
  
  
  
  
  
 </defs>
 
<path
   d="m 765.38788,1762.7266 169.00001,-293 339.00001,0 168.9963,293.0008 -168.9963,292.9992 -339.00001,0 z"
   id="path3810"
   style="fill:#61c5c1;fill-rule:nonzero" /><path
   d="m 1410.3849,664.63698 169,-293 339,0 168.9963,293.0008 -168.9963,292.9992 -339,0 z"
   id="path3808"
   style="fill:#61c5c1;fill-rule:nonzero" /><polygon
   points="2834,1575 2826,1571 2811,1596 2819,1601 "
   transform="translate(-2057.6171,-690.26856)"
   id="polygon172"
   style="fill:#d3ecec;fill-rule:nonzero" /><polygon
   points="2805,1626 2796,1621 2782,1647 2790,1651 "
   transform="translate(-2057.6171,-690.26856)"
   id="polygon174"
   style="fill:#d3ecec;fill-rule:nonzero" /><polygon
   points="3462,1926 3447,1951 3455,1956 3470,1930 "
   transform="translate(-2057.6171,-690.26856)"
   id="polygon176"
   style="fill:#d3ecec;fill-rule:nonzero" /><polygon
   points="3491,1875 3476,1900 3484,1905 3499,1880 "
   transform="translate(-2057.6171,-690.26856)"
   id="polygon178"
   style="fill:#d3ecec;fill-rule:nonzero" /><polygon
   points="3411,2032 3403,2027 3388,2053 3397,2057 "
   transform="translate(-2057.6171,-690.26856)"
   id="polygon180"
   style="fill:#d3ecec;fill-rule:nonzero" /><polygon
   points="3550,1773 3535,1799 3543,1803 3558,1778 "
   transform="translate(-2057.6171,-690.26856)"
   id="polygon182"
   style="fill:#d3ecec;fill-rule:nonzero" /><polygon
   points="3432,1976 3418,2002 3426,2007 3441,1981 "
   transform="translate(-2057.6171,-690.26856)"
   id="polygon184"
   style="fill:#d3ecec;fill-rule:nonzero" /><polygon
   points="2863,1524 2855,1520 2840,1545 2849,1550 "
   transform="translate(-2057.6171,-690.26856)"
   id="polygon186"
   style="fill:#d3ecec;fill-rule:nonzero" /><polygon
   points="3520,1824 3506,1849 3514,1854 3528,1829 "
   transform="translate(-2057.6171,-690.26856)"
   id="polygon188"
   style="fill:#d3ecec;fill-rule:nonzero" /><polygon
   points="3206,1365 3235,1365 3235,1356 3206,1356 "
   transform="translate(-2057.6171,-690.26856)"
   id="polygon190"
   style="fill:#d3ecec;fill-rule:nonzero" /><polygon
   points="3264,1365 3294,1365 3294,1356 3264,1356 "
   transform="translate(-2057.6171,-690.26856)"
   id="polygon192"
   style="fill:#d3ecec;fill-rule:nonzero" /><polygon
   points="3089,1365 3118,1365 3118,1356 3089,1356 "
   transform="translate(-2057.6171,-690.26856)"
   id="polygon194"
   style="fill:#d3ecec;fill-rule:nonzero" /><polygon
   points="3147,1365 3176,1365 3176,1356 3147,1356 "
   transform="translate(-2057.6171,-690.26856)"
   id="polygon196"
   style="fill:#d3ecec;fill-rule:nonzero" /><polygon
   points="2922,1423 2914,1418 2899,1444 2907,1448 "
   transform="translate(-2057.6171,-690.26856)"
   id="polygon198"
   style="fill:#d3ecec;fill-rule:nonzero" /><polygon
   points="2893,1474 2884,1469 2870,1494 2878,1499 "
   transform="translate(-2057.6171,-690.26856)"
   id="polygon200"
   style="fill:#d3ecec;fill-rule:nonzero" /><polygon
   points="3030,1365 3059,1365 3059,1356 3030,1356 "
   transform="translate(-2057.6171,-690.26856)"
   id="polygon202"
   style="fill:#d3ecec;fill-rule:nonzero" /><path
   d="m 875.38289,1421.7315 -181.00001,313 c -3,-1 -7,-2 -10,-2 -15,0 -27,11 -30,25 l -362,0 c -2,-14 -15,-25 -30,-25 -4,0 -7,1 -10,2 l -181.000001,-313 c 7,-6 11,-14 11,-23 0,-9 -4,-18 -11,-23 l 180.000001,-312 c 3,1 6,2 9,2 15,0 27,-11 30,-25 l 363,0 c 2,14 15,25 30,25 4,0 7,-1 10,-2 l 181.00001,313 c -7,6 -11,14 -11,23 0,9 4,17 11,23 z m 709.00001,336 -29,0 c -2,-14 -15,-25 -30,-25 -4,0 -8,1 -12,2 l -180,-312 c 7,-6 12,-14 12,-24 0,-17 -13,-30 -30,-30 -15,0 -27,11 -30,25 l -362.00001,0 c -2,-14 -15,-25 -30,-25 -4,0 -8,1 -11,2 l -5,-8 0,0 -15,-25 0,0 -15,-25 0,0 -15,-25 0,0 -15,-25 0,0 -15.00001,-25 0,0 -15,-25 0,0 -15,-25 0,0 -15,-25 0,0 -15,-25 0,0 -15,-25 0,0 -15,-25 0,0 -15,-25 0,0 0,0 c 7,-6 11,-14 11,-23 0,-9 -4,-18 -11,-23 l 14,-25.00002 -8,-5 -14,25.00002 c -3,-1 -7,-2 -11,-2 -15,0 -27,11 -30,25 l -363,0 c -2,-14 -15,-25 -30,-25 -3,0 -7,1 -10,2 L 70.382879,709.73148 c 10,-8 17,-20 17,-33 0,-23 -19,-41 -41,-41 -21,0 -38.9999995,16 -40.9999995,37 l 3,1 c 1.9999995,21 19.9999995,37 40.9999995,37 6,0 11,-1 16,-3 L 239.38288,1009.7315 c -7,6 -12,14 -12,24 0,10 5,18 12,24 l -180.000001,312 c -3,-1 -7,-2 -10,-2 -17,0 -30,13 -30,30 0,17 13,30 30,30 4,0 7,-1 11,-2 l 7,13 0,0 15,26 0,0 15,26 0,0 15.000001,26 0,0 15,26 0,0 15,26 0,0 15,26 0,0 15,26 0,0 15,26 0,0 15,26 0,0 15,26 0,0 15,26 0,0 8,13 c -7,6 -12,14 -12,24 0,17 13,30 30,30 15,0 27,-11 30,-25 l 362,0 c 2,14 15,25 30,25 4,0 7,-1 11,-2 l 180.00001,312 c -7,6 -12,14 -12,24 0,17 13,30 30,30 15,0 27,-11 30,-25 l 363.00001,0 c 2,14 15,25 30,25 17,0 30,-13 30,-30 0,-17 -13,-30 -30,-30 -15,0 -27,11 -30,25 l -363.00001,0 c -2,-14 -15,-25 -30,-25 -4,0 -7,1 -10,2 l -180.00001,-313 c 7,-6 11,-14 11,-23 0,-9 -4,-18 -11,-23 l 181.00001,-313 c 3,1 7,2 11,2 15,0 27,-11 30,-25 l 362.00001,0 c 2,14 15,25 30,25 3,0 7,-1 10,-2 l 181,313 c -6,6 -11,14 -11,23 0,9 4,18 11,23 l 0,0 1,1 c 2,1 4,3 6,4 l 1,0 0,0 c 3,1 7,2 11,2 15,0 27,-11 30,-25 l 29,0 0,-9 z"
   id="path284"
   style="fill:#d3ecec;fill-rule:nonzero" /><polygon
   points="2136,1308 2144,1312 2159,1287 2151,1282 "
   transform="translate(-2057.6171,-690.26856)"
   id="polygon286"
   style="fill:#d3ecec;fill-rule:nonzero" /><polygon
   points="2218,1185 2209,1181 2195,1206 2203,1211 "
   transform="translate(-2057.6171,-690.26856)"
   id="polygon288"
   style="fill:#d3ecec;fill-rule:nonzero" /><polygon
   points="2370,1001 2399,1001 2399,992 2370,992 "
   transform="translate(-2057.6171,-690.26856)"
   id="polygon290"
   style="fill:#d3ecec;fill-rule:nonzero" /><polygon
   points="2188,1236 2180,1231 2165,1257 2174,1261 "
   transform="translate(-2057.6171,-690.26856)"
   id="polygon292"
   style="fill:#d3ecec;fill-rule:nonzero" /><polygon
   points="2247,1135 2239,1130 2224,1155 2232,1160 "
   transform="translate(-2057.6171,-690.26856)"
   id="polygon294"
   style="fill:#d3ecec;fill-rule:nonzero" /><polygon
   points="2546,1001 2575,1001 2575,992 2546,992 "
   transform="translate(-2057.6171,-690.26856)"
   id="polygon296"
   style="fill:#d3ecec;fill-rule:nonzero" /><polygon
   points="2604,1001 2634,1001 2634,992 2604,992 "
   transform="translate(-2057.6171,-690.26856)"
   id="polygon298"
   style="fill:#d3ecec;fill-rule:nonzero" /><polygon
   points="2487,1001 2516,1001 2516,992 2487,992 "
   transform="translate(-2057.6171,-690.26856)"
   id="polygon300"
   style="fill:#d3ecec;fill-rule:nonzero" /><polygon
   points="2428,1001 2458,1001 2458,992 2428,992 "
   transform="translate(-2057.6171,-690.26856)"
   id="polygon302"
   style="fill:#d3ecec;fill-rule:nonzero" /><polygon
   points="2276,1084 2268,1079 2253,1104 2262,1109 "
   transform="translate(-2057.6171,-690.26856)"
   id="polygon304"
   style="fill:#d3ecec;fill-rule:nonzero" /><polygon
   points="3847,2458 3877,2458 3877,2448 3847,2448 "
   transform="translate(-2057.6171,-690.26856)"
   id="polygon310"
   style="fill:#d3ecec;fill-rule:nonzero" /><polygon
   points="3730,2458 3759,2458 3759,2448 3730,2448 "
   transform="translate(-2057.6171,-690.26856)"
   id="polygon316"
   style="fill:#d3ecec;fill-rule:nonzero" /><polygon
   points="3789,2458 3818,2458 3818,2448 3789,2448 "
   transform="translate(-2057.6171,-690.26856)"
   id="polygon320"
   style="fill:#d3ecec;fill-rule:nonzero" /><polygon
   points="3672,2458 3701,2458 3701,2448 3672,2448 "
   transform="translate(-2057.6171,-690.26856)"
   id="polygon330"
   style="fill:#d3ecec;fill-rule:nonzero" /><polygon
   points="3906,2458 3935,2458 3935,2448 3906,2448 "
   transform="translate(-2057.6171,-690.26856)"
   id="polygon332"
   style="fill:#d3ecec;fill-rule:nonzero" /><polygon
   points="3471,2659 3462,2654 3448,2680 3456,2684 "
   transform="translate(-2057.6171,-690.26856)"
   id="polygon338"
   style="fill:#d3ecec;fill-rule:nonzero" /><polygon
   points="3500,2608 3492,2604 3477,2629 3485,2634 "
   transform="translate(-2057.6171,-690.26856)"
   id="polygon340"
   style="fill:#d3ecec;fill-rule:nonzero" /><polygon
   points="3536,2527 3544,2532 3559,2507 3550,2502 "
   transform="translate(-2057.6171,-690.26856)"
   id="polygon342"
   style="fill:#d3ecec;fill-rule:nonzero" /><polygon
   points="3529,2557 3521,2553 3506,2578 3515,2583 "
   transform="translate(-2057.6171,-690.26856)"
   id="polygon346"
   style="fill:#d3ecec;fill-rule:nonzero" /><polygon
   points="3397,2786 3412,2761 3404,2756 3389,2781 "
   transform="translate(-2057.6171,-690.26856)"
   id="polygon348"
   style="fill:#d3ecec;fill-rule:nonzero" /><polygon
   points="3441,2710 3433,2705 3418,2730 3427,2735 "
   transform="translate(-2057.6171,-690.26856)"
   id="polygon350"
   style="fill:#d3ecec;fill-rule:nonzero" /><path
   d="m 238.38288,340.73148 -13,23 8,5 13,-23 c 5,2 10,3 15,3 23,0 41,-19 41,-41.00004 0,-23 -19,-41 -41,-41 -23,0 -41,19 -41,41 0,14.00004 7,27.00004 18,34.00004 z"
   id="path436"
   style="fill:#d3ecec;fill-rule:nonzero" /><path
   d="m 673.38288,347.73148 c 23,0 41,-19 41,-41.00004 0,-23 -19,-41 -41,-41 -21,0 -39,16 -41,37 l -27,0 0,9.00004 27,0 c 2,21 20,37 41,37 z"
   id="path438"
   style="fill:#d3ecec;fill-rule:nonzero" /><path
   d="m 870.38289,702.73148 8,5 5,-9 c 3,1 7,2 11,2 15,0 27,-11 30,-25 l 19,0 0,-9 -19,0 c -2,-14 -15,-25 -30,-25 -17,0 -30,13 -30,30 0,9 4,18 11,23 l -5,9 z"
   id="path446"
   style="fill:#d3ecec;fill-rule:nonzero" /><path
   d="m 2186.3829,1393.7315 c -2,-14 -15,-25 -30,-25 -3,0 -7,1 -10,2 l -180,-312 c 7,-6 11,-14 11,-23 0,-9 -4,-18 -11,-23 l 180,-312.00002 c 3,1 6,2 10,2 15,0 27,-11 30,-25 l -2,-9 c -2,-14 -15,-25 -30,-25 -4,0 -7,1 -11,2 l -180,-312 c 7,-6 12,-14 12,-24.00004 0,-17 -13,-30 -30,-30 -15,0 -27,11 -30,25 l -363,0 c -2,-14 -15,-25 -30,-25 -17,0 -30,13 -30,30 0,10.00004 5,18.00004 12,24.00004 l -180,312 c -3,-1 -7,-2 -10,-2 -15,0 -27,11 -30,25 l -22,0 0,9 22,0 c 2,14 15,25 30,25 4,0 7,-1 10,-2 l 181,313.00002 c -6,6 -10,14 -10,23 0,9 4,16 10,22 l -1,1 8,5 0,-1 c 4,2 8,3 13,3 15,0 27,-11 30,-25 l 361,0 c 2,14 15,25 30,25 4,0 7,-1 11,-2 l 180,312 c -7,6 -12,14 -12,24 0,10 5,18 12,24 l -180,312 c -4,-2 -8,-2 -12,-2 -15,0 -27,11 -30,25 l -10,0 0,9 10,0 c 2,14 15,25 30,25 17,0 30,-13 30,-30 0,-9 -4,-17 -10,-23 l 181,-313 c 3,1 6,2 10,2 15,0 27,-11 30,-25 z m -229,-387 c -3,-1 -6,-2 -10,-2 -15,0 -27,11 -30,25 l -361,0 c -2,-14 -15,-25 -30,-25 -4,0 -8,1 -12,2 l -181,-313.00002 c 7,-6 12,-14 12,-24 0,-10 -5,-18 -12,-24 l 180,-312 c 3,1 6,2 10,2 15,0 27,-11 30,-25 l 363,0 c 2,14 15,25 30,25 3,0 7,-1 10,-2 l 180,312 c -7,6 -11,14 -11,23 0,9 4,18 11,23 l -180,312.00002 z"
   id="path456"
   style="fill:#d3ecec;fill-rule:nonzero" /><path
   d="m 1154.9923,1601.7413 c -1,-5 -4,-9 -9,-10 l -8,-2 c -5,-1 -9,1 -12,5 l -1,2 c 5,0 10,0 15,1 l 16,4 z"
   id="path510"
   style="fill:#fefefe;fill-rule:nonzero" /><path
   d="m 1132.9923,1613.7413 8,2 c 3,1 5,0 7,-1 l 3,-2 -15,-4 c -4,-1 -8,-1 -12,-1 2,3 4,5 8,6 z"
   id="path512"
   style="fill:#fefefe;fill-rule:nonzero" /><path
   d="m 1123.9923,1604.7413 1,2 c 4,0 8,0 12,1 l 15,4 c 2,-2 3,-4 4,-6 l 0,0 c 0,-1 0,-3 0,-4 l -16,-4 c -5,-1 -10,-2 -15,-1 l -1,3 c 0,2 0,4 0,5 z"
   id="path514"
   style="fill:#fefefe;fill-rule:nonzero" /><path
   d="m 1096.9923,1631.7413 c 3,-14 15,-23 28,-24 l -1,-2 c 0,-2 -1,-4 0,-5 l 1,-3 c -6,1 -13,2 -18,6 -10,6 -17,15 -20,27 l -21,73 11,1 20,-71 z"
   id="path516"
   style="fill:#fefefe;fill-rule:nonzero" /><path
   d="m 1225.9923,1697.7413 1,0 c 3,-3 5,-7 5,-11 l -1,-8 c -1,-5 -4,-8 -9,-9 l 4,16 c 1,4 1,9 1,13 z"
   id="path518"
   style="fill:#fefefe;fill-rule:nonzero" /><path
   d="m 1209.9923,1670.7413 c -1,1 -2,2 -3,3 -1,2 -2,5 -1,7 l 1,8 c 1,4 3,7 7,9 0,-4 0,-8 -1,-12 l -4,-16 z"
   id="path520"
   style="fill:#fefefe;fill-rule:nonzero" /><path
   d="m 1215.9923,1668.7413 c -2,0 -4,1 -5,3 l 4,16 c 1,4 1,8 1,12 l 1,1 c 2,1 4,1 5,0 2,0 3,-1 4,-2 0,-4 0,-9 -1,-13 l -4,-16 c -2,0 -3,0 -5,0 l 0,0 z"
   id="path522"
   style="fill:#fefefe;fill-rule:nonzero" /><path
   d="m 1220.9923,1699.7413 c -2,0 -4,0 -5,0 l -1,-1 c -2,13 -11,25 -25,28 l -79,21 3,11 79,-21 c 11,-3 21,-10 27,-20 4,-6 6,-13 6,-20 -1,1 -3,2 -4,2 z"
   id="path524"
   style="fill:#fefefe;fill-rule:nonzero" /><path
   d="m 1144.9923,1855.7413 c 0,-18 -11,-32 -31,-40 -22,-9 -36,-20 -40,-35 -6,-20 6,-39 6,-39 l -9,-6 c -1,1 -15,23 -7,48 6,18 21,32 47,42 15,6 24,16 24,30 0,19 -15,39 -36,47 -8,3 -22,6 -38,0 -2,3 -4,6 -7,9 16,7 33,7 49,1 25,-10 43,-34 43,-57 z"
   id="path526"
   style="fill:#fefefe;fill-rule:nonzero" /><path
   d="m 1015.9923,1901.7413 c -7,-8 -7,-21 2,-28 8,-7 21,-7 28,2 6,6 6,15 3,23 -1,2 -2,4 -4,6 l -3,2 c -8,5 -18,3 -25,-4 z m 38,11 c 3,-3 5,-6 7,-9 6,-12 5,-27 -5,-38 -12,-14 -33,-15 -47,-3 -14.00001,12 -15.00001,33 -3,47 12,14 33,15 47,3 l 1,-1 z"
   id="path528"
   style="fill:#fefefe;fill-rule:nonzero" /><path
   d="m 1039.9923,1897.7413 c 1,-1 2,-2 3,-4 3,-5 2,-11 -2,-15 -5,-6 -14,-6 -19,-1 -6,5 -6,14 -1,19 5,6 14,6 19,1 l 0,0 z"
   id="path530"
   style="fill:#fefefe;fill-rule:nonzero" /><path
   d="m 1102.9923,1762.7413 43,-10 -4,-15 -38,9 c -16,-1 -29,-15 -28,-32 l 13,-43 -15,-4 -14,46 c -1,10 2,18 6,26 -3,6 -8,18 -7,32 l 16,1 c -1,-7 1,-14 3,-20 7,5 16,9 25,9 z"
   id="path538"
   style="fill:#fefefe;fill-rule:nonzero" /><path
   d="m 130.39158,1407.6976 169,-293 339,0 168.99631,293.0008 -168.99631,292.9992 -339,0 z"
   id="path3814"
   style="fill:#61c5c1;fill-rule:nonzero" /><path
   d="m 609.38288,1518.7315 c 0,16 -13,30 -30,30 l -239,0 c -16,0 -30,-13 -30,-30 l 0,-158 c 0,-16 13,-30 30,-30 l 239,0 c 16,0 30,13 30,30 l 0,158 z m -30,-205 -239,0 c -25,0 -46,21 -46,46 l 0,158 c 0,25 21,46 46,46 l 239,0 c 25,0 46,-21 46,-46 l 0,-158 c 0,-25 -21,-46 -46,-46 z"
   id="path540"
   style="fill:#fefefe;fill-rule:nonzero" /><path
   d="m 405.38288,1278.7315 c 0,-16 13,-30 30,-30 l 47,0 c 16,0 30,13 30,30 l 0,19 16,0 0,-19 c 0,-25 -21,-46 -46,-46 l -47,0 c -25,0 -46,21 -46,46 l 0,19 16,0 0,-19 z"
   id="path542"
   style="fill:#fefefe;fill-rule:nonzero" /><path
   d="m 513.38288,1426.7315 -43,0 0,-43 c 0,-6 -5,-11 -11,-11 -6,0 -11,5 -11,11 l 0,43 -43,0 c -6,0 -11,5 -11,11 0,6 5,11 11,11 l 43,0 0,43 c 0,6 5,11 11,11 6,0 11,-5 11,-11 l 0,-43 43,0 c 6,0 11,-5 11,-11 0,-6 -5,-11 -11,-11 z"
   id="path544"
   style="fill:#fefefe;fill-rule:nonzero" /><path
   d="m 130.39158,677.72698 169,-293 339,0 168.99631,293.0008 -168.99631,292.9992 -339,0 z"
   id="path3816"
   style="fill:#61c5c1;fill-rule:nonzero" /><path
   d="m 478.32548,646.73148 -7,7 -8,8 -8,8 -8,8 -8,8 -8,8 -8,8 -2,2 c -2,2 -4,4 -5,7 -2,4 -3,9 -3,14 l 1,3 4,4 1,1 c 2,2 3,5 2,7 l 2,2 c 9,9 25,9 35,-1 l 59,-59 -37,-37 z"
   id="path546"
   style="fill:#fefefe;fill-rule:nonzero" /><path
   d="m 558.32548,558.73148 44,44 c 3,3 3,8 0,12 -3,3 -8,3 -12,0 l -44,-44 c -3,-3 -3,-8 0,-12 3,-3 8,-3 12,0 z"
   id="path548"
   style="fill:#fefefe;fill-rule:nonzero" /><polygon
   points="2671,1297 2659,1285 2628,1317 2640,1328 "
   transform="translate(-2086.6745,-690.26856)"
   id="polygon550"
   style="fill:#fefefe;fill-rule:nonzero" /><polygon
   points="2622,1310 2653,1279 2642,1267 2611,1298 "
   transform="translate(-2086.6745,-690.26856)"
   id="polygon552"
   style="fill:#fefefe;fill-rule:nonzero" /><path
   d="m 455.32548,756.73148 c -13,13 -35,14 -47,1 l -4,-4 c -5,-5 -8,-12 -9,-19 -1,-7 1,-13 4,-19 2,-3 4,-6 7,-9 l 3,-3 12,-12 11,-11 12,-12 11,-11 12,-11 11,-11 9,-9 2,-2 3,-3 50,50 -5,5 -81,81 z m 112,-83 -79,-79 c -3,-3 -8,-3 -12,0 -3,3 -3,8 0,12 l 1,1 -5,5 -1,1 -8,8 -11,11 -12,12 -11,11 -12,12 -11,11 -12,12 -3,3 c -3,3 -5,6 -7,9 -3,5 -6,10 -7,16 -4,16 -1,33 9,45 l -42,42 c -3,3 -3,8 0,12 3,3 8,3 12,0 l 42,-42 c 20,16 51,15 70,-5 l 81,-81 5,-5 1,1 c 3,3 8,3 12,0 3,-3 3,-8 0,-12 z"
   id="path554"
   style="fill:#fefefe;fill-rule:nonzero" /><path
   d="m 484.32548,665.73148 0,-1 -11,-11 0,0 -11,11 1,1 11,11 1,1 c 3,2 7,2 10,-1 3,-3 3,-8 0,-11 z"
   id="path556"
   style="fill:#32bdb5;fill-rule:nonzero" /><path
   d="m 461.32548,687.73148 -10,-10 -1,-1 -1,-1 -12,11 1,1 1,1 10,10 3,2 c 3,1 6,1 9,-2 2,-2 3,-6 2,-9 l -2,-2 z"
   id="path558"
   style="fill:#32bdb5;fill-rule:nonzero" /><path
   d="m 440.32548,711.73148 -11,-11 -2,-2 -11,12 1,1 13,13 1,1 c 3,2 8,2 10,-1 2,-2 3,-6 2,-9 l -2,-2 z"
   id="path560"
   style="fill:#32bdb5;fill-rule:nonzero" /><g
   transform="matrix(1.5,0,0,1.5,-3640.8671,-1540.1747)"
   id="g3818"
   style="fill:#61c5c1;fill-opacity:1;stroke:none"><path
     d="m 3123,1805.8123 -16,0 0,-16 c 0,-2 -2,-4 -4,-4 -2,0 -4,2 -4,4 l 0,16 -16,0 c -2,0 -4,2 -4,4 0,2 2,4 4,4 l 16,0 0,16 c 0,2 2,4 4,4 2,0 4,-2 4,-4 l 0,-16 16,0 c 2,0 4,-2 4,-4 0,-2 -2,-4 -4,-4 z"
     id="path570"
     style="fill:#61c5c1;fill-opacity:1;fill-rule:nonzero;stroke:none" /><path
     d="m 3049,1853.8123 232,0 c 1,-28 -1,-58 -4,-63 -5,-7 -20,-13 -37,-20 -5,-2 -11,-4 -16,-6 -10,-4 -17,-7 -22,-10 l -33,82 -41,-83 c -5,2 -12,5 -23,10 -5,2 -11,4 -16,6 -17,6 -33,13 -37,20 -3,5 -4,36 -4,63 z m 245,13 -258,0 0,-6 c 0,-15 -1,-66 6,-78 7,-11 24,-17 44,-25 5,-2 11,-4 16,-6 17,-7 25,-11 28,-12 l 6,-3 34,68 27,-68 7,3 c 3,2 11,5 27,12 5,2 11,4 16,6 20,8 37,14 44,25 7,11 6,62 6,78 l 0,6 z"
     id="path572"
     style="fill:#61c5c1;fill-opacity:1;fill-rule:nonzero;stroke:none" /><path
     d="m 3200,1700.8123 c -1,2 -2,4 -3,6 -3,6 -6,9 -6,9 l -2,2 0,26 0,4 0,0 -22,56 -28,-57 0,-26 0,-3 -2,-2 c 0,0 -3,-3 -6,-9 -1,-2 -2,-4 -3,-6 l -1,-2 -3,-46 c 25,-7 38,-33 38,-33 12,17 29,25 41,28 l -2,29 c 0,1 0,3 -1,4 0,3 -1,6 -1,8 0,2 -1,4 -1,4 0,2 -1,3 -1,5 0,1 -1,2 -1,4 z m 59,26 c 0,0 -24,-12 -27,-41 0,0 -6,-65 -21,-76 -10,-12 -25,-21 -46,-21 l -1,0 -1,0 c -3,0 -7,0 -10,1 -13,2 -24,8 -32,16 -16,9 -22,77 -22,77 -3,29 -27,41 -27,41 28,9 46,3 53,-1 l 1,1 0,17 -4,2 47,95 37,-95 -4,-2 0,-16 c 4,3 23,14 56,3 z"
     id="path574"
     style="fill:#61c5c1;fill-opacity:1;fill-rule:nonzero;stroke:none" /><path
     d="m 3226,1561.8123 c -12,-8 -36,-17 -62,-18 l 0,0 -1,0 -1,0 0,0 c -26,1 -50,10 -62,18 -4,3 -5,8 -4,11 l 21,37 c 1,3 4,2 5,1 8,-8 18,-20 44,-20 25,0 35,12 43,20 1,1 4,2 5,-1 l 16,-37 c 0,-3 0,-8 -4,-11 z"
     id="path576"
     style="fill:#61c5c1;fill-opacity:1;fill-rule:nonzero;stroke:none" /><path
     d="m 3202,1543.8123 c -7,-5 -22,-11 -38,-11 l 0,0 0,0 0,0 0,0 c -16,1 -31,7 -38,11 -3,2 -3,5 -3,7 l 13,23 c 1,2 2,1 3,1 5,-5 11,-12 27,-13 16,0 22,8 27,13 1,0 2,1 3,-1 l 10,-23 c 0,-2 0,-5 -3,-7 z"
     id="path578"
     style="fill:#61c5c1;fill-opacity:1;fill-rule:nonzero;stroke:none" /><path
     d="m 3176,1563.8123 -8,0 0,-9 c 0,-2 -2,-4 -4,-4 -2,0 -4,2 -4,4 l 0,9 -8,0 c -2,0 -4,2 -4,4 0,2 2,4 4,4 l 8,0 0,9 c 0,2 2,4 4,4 2,0 4,-2 4,-4 l 0,-9 8,0 c 2,0 4,-2 4,-4 0,-2 -2,-4 -4,-4 z"
     id="path580"
     style="fill:#ffffff;fill-opacity:1;fill-rule:nonzero;stroke:none" /></g><path
   d="m 765.38788,304.71864 169.00001,-292.999998 339.00001,0 168.9963,293.000798 -168.9963,292.99924 -339.00001,0 z"
   id="path3812"
   style="fill:#61c5c1;fill-rule:nonzero" /><path
   d="m 1120.3829,305.73144 c -2,0 -4,-1 -6,-2 l -12,-11 -13,32.00004 c -1,3 -4,5 -8,5 l 0,0 c -3,0 -6,-2 -7,-6 l -14,-44.00004 -9,23 c -1,3 -4,5 -8,5 l -24,0 c 5,7.00004 10,13.00004 16,19.00004 24,23 56,39 72,46 l 0,0 0,0 0,0 0,0 c 19,-8 57,-28 81,-55 4,-4 7,-8.00004 10,-13.00004 l -60,0 -18,1 z"
   id="path594"
   style="fill:#fefefe;fill-rule:nonzero" /><path
   d="m 1054.3829,251.73144 c 1,-3 4,-5 8,-5 3,0 6,2 7,6 l 14,45 9,-22 c 1,-2 3,-4 6,-5 3,-1 5,0 7,2 l 18,16 15,-1 1,0 69,0 c 4,-11 5,-24 2,-37 -18,-64 -88,-41 -100,-7 -13,-34 -83,-57 -100,7 -4,14 -2,28 3,40 l 27,0 16,-40 z"
   id="path596"
   style="fill:#fefefe;fill-rule:nonzero" /><path
   d="m 1010.3829,290.73144 -53.00001,0 c -4,0 -8,4 -8,8 0,4 4,8 8,8 l 63.00001,0 c -3,-4 -5,-8 -7,-12 -1,-1 -1,-3 -2,-4 z"
   id="path598"
   style="fill:#fefefe;fill-rule:nonzero" /><path
   d="m 1260.3829,287.73144 -54,0 c -2,5 -4,10 -7,15 l -1,2 62,0 c 5,0 8,-4 8,-8 0,-5 -4,-8 -8,-8 z"
   id="path600"
   style="fill:#fefefe;fill-rule:nonzero" /><path
   d="m 1256.3829,371.73148 c 0,16 -13,30 -30,30 l -236.00001,0 c -16,0 -30,-13 -30,-30 l 0,-160.00004 c 0,-16 13,-30 30,-30 l 236.00001,0 c 16,0 30,13 30,30 l 0,160.00004 z m -133,89 -29,0 0,-43 29,0 0,43 z m 103,-295.00004 -236.00001,0 c -25,0 -46,21 -46,46 l 0,160.00004 c 0,25 21,46 46,46 l 87.00001,0 0,43 -42,0 c -4,0 -8,4 -8,8 0,4 4,8 8,8 l 146,0 c 5,0 8,-4 8,-8 0,-4 -4,-8 -8,-8 l -42,0 0,-43 87,0 c 25,0 46,-21 46,-46 l 0,-160.00004 c 0,-25 -21,-46 -46,-46 z"
   id="path602"
   style="fill:#fefefe;fill-rule:nonzero" /><path
   d="m 1826.3829,595.73148 -33,0 0,-33 c 0,-6 -5,-11 -11,-11 -6,0 -11,5 -11,11 l 0,33 -33,0 c -6,0 -11,5 -11,11 0,6 5,11 11,11 l 33,0 0,33 c 0,6 5,11 11,11 6,0 11,-5 11,-11 l 0,-33 33,0 c 6,0 11,-5 11,-11 0,-6 -5,-11 -11,-11 z"
   id="path622"
   style="fill:#fefefe;fill-rule:nonzero" /><path
   d="m 1608.3829,758.73148 c -6,0 -11,5 -11,11 0,6 5,11 11,11 6,0 11,-5 11,-11 0,-6 -5,-11 -11,-11 z m 0,38 c -15,0 -27,-12 -27,-27 0,-15 12,-27 27,-27 15,0 27,12 27,27 0,15 -12,27 -27,27 z"
   id="path624"
   style="fill:#fefefe;fill-rule:nonzero" /><path
   d="m 1814.3829,741.73148 c -11,0 -20,9 -20,20 0,11 9,20 20,20 11,0 20,-9 20,-20 0,-11 -9,-20 -20,-20 z m 0,56 c -20,0 -36,-16 -36,-36 0,-20 16,-36 36,-36 20,0 36,16 36,36 0,20 -16,36 -36,36 z"
   id="path626"
   style="fill:#fefefe;fill-rule:nonzero" /><path
   d="m 1656.3829,607.73148 c 0,-4 -4,-8 -8,-8 l -57,0 c -4,0 -7,4 -8,8 l -16,45 0,16 88,0 0,-60 z"
   id="path628"
   style="fill:#fefefe;fill-rule:nonzero" /><path
   d="m 1883.3829,725.73148 c 0,6 -4,10 -10,10 l -7,0 c -7,-19 -27,-34 -54,-34 -25,0 -46,15 -53,34 l -78,0 0,-62 0,0 0,-141 c 0,-6 4,-10 10,-10 l 181,0 c 6,0 10,4 10,10 l 0,193 z m -218,10 -17,0 c -8,-13 -26,-19 -41,-19 -17,0 -32,7 -39,19 l -3,0 c -6,0 -10,-4 -10,-10 l 0,-69 19,-56 c 2,-6 4,-10 10,-10 l 70,0 c 6,0 10,5 10,10 l 0,135 z m 208,-229 -181,0 c -14,0 -26,12 -26,26 l 0,44 c -3,-1 -7,-2 -10,-2 l -70,0 c -15,0 -24,12 -26,26 l -19,56 0,68 c 0,14 12,26 26,26 l 13,0 2,-5 c 4,-10 16,-14 26,-14 11,0 25,5 29,14 l 2,5 136,0 1,-7 c 2,-14 19,-27 39,-27 21,0 37,12 39,27 l 1,7 20,0 c 14,0 26,-12 26,-26 l 0,-193 c 0,-14 -12,-26 -26,-26 z"
   id="path630"
   style="fill:#fefefe;fill-rule:nonzero" /><path
   d="m 1410.3849,1407.6976 169,-293 339,0 168.9963,293.0008 -168.9963,292.9992 -339,0 z"
   id="path3806"
   style="fill:#61c5c1;fill-rule:nonzero" /><path
   d="m 1733.68,1513.518 c -19,27 -57,33 -84,14 -27,-19 -33,-57 -14,-84 l 105,-147 c 19,-27 57,-33 84,-14 27,19 33,57 14,84 l -105,147 z m 100,-244 c -34,-24 -81,-16 -106,18 l -105,147 c -24,34 -16,81 18,106 34,24 81,16 106,-18 l 105,-147 c 24,-34 16,-81 -18,-106 z"
   id="path506"
   style="fill:#fefefe;fill-rule:nonzero" /><path
   d="m 1650.68,1449.518 c -14,20 -10,48 10,62 20,14 48,10 62,-10 l 58,-82 -73,-52 z"
   id="path508"
   style="fill:#fefefe;fill-rule:nonzero" /></svg>