<?xml version="1.0" encoding="UTF-8" standalone="no"?>
<svg
    xmlns:svg="http://www.w3.org/2000/svg"
    xmlns:xlink="http://www.w3.org/1999/xlink"
    xmlns="http://www.w3.org/2000/svg"
    width="500"
    height="500"
    viewBox="0 0 500 500">
    <g id="ambulance" transform="translate( 300, 10 )">
        <rect
            style="fill: #aa0000; stroke: none;"
            height="15"
            width="20"
            rx="5"
            ry="5"
            x="75"
            y="0" />
        <path
            style="fill: #ffffff; stroke: none;"
            d="m 0,10 100,0 50,65 0,35 -150,0 0,-100" />
        <path
            style="fill: #99dddd; stroke: none;"
            d="m 100,20 40,55 -40,0" />
        <circle
            cx="30"
            cy="110"
            r="20"
            style="fill: #888888; stroke: none;" />
        <circle
            cx="30"
            cy="110"
            r="10"
            style="fill: #99dddd; stroke: none;" />
        <circle
            cx="115"
            cy="110"
            r="20"
            style="fill: #888888; stroke: none;" />
        <circle
            cx="115"
            cy="110"
            r="10"
            style="fill: #99dddd; stroke: none;" />
        <path
            style="fill: #880000; stroke: none;"
            d="m 50,20 10,0 0,20 20,0 0,20 -20,0 0,20 -10,0 -5,-30 z" />
        <path
            style="fill: #990000; stroke: none;"
            d="m 20,40 20,0 0,-20 10,0 0,60 -10,0 0,-20 -20,0 z" />
    </g>
    <g id="bandaid">
    </g>
    <g id="cross" transform="translate( 175, 175 )">
        <path
            style="fill: #880000; stroke: none;"
            d="m 75,0 25,0 0,50 50,0 0,50 -50,0 0,50 -25,0 -10,-75 z" />
        <path
            style="fill: #990000; stroke: none;"
            d="m 0,50 50,0 0,-50 25,0 0,150 -25,0 0,-50 -50,0 z" />
    </g>
    <g id="eye" transform="translate( 5, 350 )">
        <path
            style="fill: #ffffff; stroke: none;"
            d="m 0,40
            a 100 100 0 0 1 160 0
            a 100 100 0 0 1 -160 0" />
        <circle
            style="fill: #5599aa; stroke: none;"
            cx="80"
            cy="40"
            r="35" />
        <circle
            style="fill: #ffffff; stroke: none;"
            cx="90"
            cy="25"
            r="10" />
        <circle
            style="fill: #ffffff; stroke: none;"
            cx="105"
            cy="40"
            r="5" />
    </g>
    <g id="pill" transform="translate( 365, 400 )">
        <g  transform="rotate( 45, 70, 35 )">
            <rect
                style="fill: #ffffff; stroke: none;"
                rx="35"
                ry="35"
                height="70"
                width="140"
                x="0"
                y="0" />
            <path
                style="fill: #5599aa; stroke: none;"
                d="m 70,10 35,0
                a 25 25 0 0 1 0 50
                l -35,0 z" />
        </g>
    </g>
    <g id="prescription">
        <path
            style="fill: #bb6633; stroke: none;"
            d="m 10,20 90,0 0,45 -10,40 10,40 0,25 -90,0 0,-25 10,-40 -10,-40 z" />
        <rect
            style="fill: #ffffff; stroke: none;"
            height="40"
            width="110"
            x="0"
            y="0" />
        <rect
            style="fill: #ffffff; stroke: none;"
            height="80"
            width="90"
            x="10"
            y="65" />
    </g>
    <g id="stethoscope">
    </g>
    <g id="tooth">
    </g>
</svg>
