<?xml version="1.0" encoding="UTF-8" standalone="no"?>
<svg
    xmlns:svg="http://www.w3.org/2000/svg"
    xmlns:xlink="http://www.w3.org/1999/xlink"
    xmlns="http://www.w3.org/2000/svg"
    width="500"
    height="500"
    viewBox="0 0 500 500">
    <g id="ambulance" transform="translate( 300, 10 )">
        <rect
            style="fill: none; stroke: #336d99; stroke-linejoin: round; stroke-width: 10px;"
            height="10"
            width="20"
            rx="5"
            ry="5"
            x="70"
            y="0" />
        <path
            style="fill: none; stroke: #336d99; stroke-linejoin: round; stroke-width: 10px;"
            d="m 0,10 100,0 50,70 0,30 -150,0 0,-100 z" />
        <path
            style="fill: #336d99; stroke: none;"
            d="m 100,20 40,60 -40,0 z" />
        <circle
            cx="30"
            cy="110"
            r="22"
            style="fill: #336d99; stroke: none;" />
        <circle
            cx="115"
            cy="110"
            r="22"
            style="fill: #336d99; stroke: none;" />
        <path
            style="fill: #336d99; stroke: none;"
            d="m 40,20 20,0 0,20 20,0 0,20 -20,0 0,20 -20,0 0,-20 -20,0 0,-20 20,0 0,-20" />
    </g>
    <g id="bandaid">
    </g>
    <g id="cross" transform="translate( 175, 175 )">
        <path
            style="fill: none; stroke: #336d99; stroke-linejoin: round; stroke-width: 10px;"
            d="m 50,0 50,0 0,50 50,0 0,50 -50,0 0,50 -50,0 0,-50 -50,0 0,-50 50,0 z" />
    </g>
    <g id="eye" transform="translate( 25, 375 )">
        <path
            style="fill: none; stroke: #336d99; stroke-linejoin: round; stroke-width: 10px;;"
            d="m 0,40
            a 100 100 0 0 1 160 0
            a 100 100 0 0 1 -160 0 z" />
        <circle
            style="fill: none; stroke: #336d99; stroke-linejoin: round; stroke-width: 10px;"
            cx="80"
            cy="40"
            r="32" />
        <circle
            style="fill: #336d99; stroke: none;"
            cx="85"
            cy="25"
            r="10" />
        <circle
            style="fill: #336d99; stroke: none;"
            cx="98"
            cy="40"
            r="5" />
    </g>
    <g id="pill" transform="translate( 300, 400 )">
        <g  transform="rotate( 45, 70, 35 )">
            <rect
                style="fill: none; stroke: #336d99; stroke-linejoin: round; stroke-width: 10px;"
                rx="35"
                ry="35"
                height="70"
                width="140"
                x="0"
                y="0" />
            <path
                style="fill: #336d99; stroke: none;"
                d="m 70,0 40,0
                a 30 30 0 0 1 0 60
                l -40,0 z" />
        </g>
    </g>
    <g id="prescription" transform="translate( 20, 160 )">
        <g  transform="rotate( 15, 45, 70 )">
            <rect
                style="fill: none; stroke: #336d99; stroke-linejoin: round; stroke-width: 10px;"
                height="110"
                width="80"
                x="10"
                y="30" />
            <rect
                style="fill: none; stroke: #336d99; stroke-linejoin: round; stroke-width: 10px;"
                height="30"
                width="100"
                x="0"
                y="0" />
            <rect
                style="fill: none; stroke: #336d99; stroke-linejoin: round; stroke-width: 10px;"
                height="70"
                width="80"
                x="10"
                y="50" />
        </g>
    </g>
    <g id="stethoscope">
    </g>
    <g id="tooth">
    </g>
</svg>
